<?xml version="1.0" encoding="UTF-8" standalone="no"?>
<svg
   xmlns:dc="http://purl.org/dc/elements/1.1/"
   xmlns:cc="http://creativecommons.org/ns#"
   xmlns:rdf="http://www.w3.org/1999/02/22-rdf-syntax-ns#"
   xmlns:svg="http://www.w3.org/2000/svg"
   xmlns="http://www.w3.org/2000/svg"
   xmlns:sodipodi="http://sodipodi.sourceforge.net/DTD/sodipodi-0.dtd"
   xmlns:inkscape="http://www.inkscape.org/namespaces/inkscape"
   width="16"
   height="16"
   fill="currentColor"
   class="bi bi-ui-checks-grid"
   viewBox="0 0 16 16"
   version="1.1"
   id="svg4"
   sodipodi:docname="ui-checks-grid-color.svg"
   inkscape:version="1.0.2 (e86c870879, 2021-01-15)">
  <metadata
     id="metadata10">
    <rdf:RDF>
      <cc:Work
         rdf:about="">
        <dc:format>image/svg+xml</dc:format>
        <dc:type
           rdf:resource="http://purl.org/dc/dcmitype/StillImage" />
        <dc:title></dc:title>
      </cc:Work>
    </rdf:RDF>
  </metadata>
  <defs
     id="defs8" />
  <sodipodi:namedview
     pagecolor="#ffffff"
     bordercolor="#666666"
     borderopacity="1"
     objecttolerance="10"
     gridtolerance="10"
     guidetolerance="10"
     inkscape:pageopacity="0"
     inkscape:pageshadow="2"
     inkscape:window-width="1920"
     inkscape:window-height="1009"
     id="namedview6"
     showgrid="false"
     inkscape:zoom="41.5625"
     inkscape:cx="8"
     inkscape:cy="8"
     inkscape:window-x="0"
     inkscape:window-y="0"
     inkscape:window-maximized="1"
     inkscape:current-layer="svg4" />
  <path
     d="M 0,2 C 0,0.8954305 0.8954305,0 2,0 H 5 C 6.1045695,0 7,0.8954305 7,2 V 5 C 7,6.1045695 6.1045695,7 5,7 H 2 C 0.8954305,7 0,6.1045695 0,5 Z M 5.354,2.854 C 5.8259998,2.3820002 5.1179998,1.6740002 4.646,2.146 L 3,3.793 2.354,3.146 C 1.8820002,2.6740002 1.1740002,3.3820002 1.646,3.854 l 1,1 c 0.1953639,0.1958584 0.5126361,0.1958584 0.708,0 z"
     id="path2"
     sodipodi:nodetypes="sssssssssscccsccs"
     style="fill:#71f4ae;fill-opacity:1" />
  <path
     d="m 11,1 h 3 c 0.552285,0 1,0.4477153 1,1 v 3 c 0,0.5522847 -0.447715,1 -1,1 H 11 C 10.447715,6 10,5.5522847 10,5 V 2 C 10,1.4477153 10.447715,1 11,1 Z M 11,3.0000001e-8 C 9.8954306,1.4045694e-7 9.0000002,0.89543059 9.0000002,2 v 3 c 0,1.1045694 0.8954304,1.9999999 1.9999998,2 h 3 c 1.104569,0 2,-0.8954305 2,-2 V 2 C 16,0.89543051 15.104569,3.0000001e-8 14,3.0000001e-8 Z"
     id="path2-5"
     sodipodi:nodetypes="ssssssssssssssssss"
     style="fill:#f48171;fill-opacity:1" />
  <path
     d="m 2,10 h 2.9999996 c 0.5522847,0 1,0.447715 1,1 v 3 c 0,0.552285 -0.4477153,1 -1,1 H 2 C 1.4477153,15 1,14.552285 1,14 V 11 C 1,10.447715 1.4477153,10 2,10 Z M 2,9 C 0.8954305,9 0,9.8954305 0,11 v 3 c 0,1.104569 0.8954305,2 2,2 h 2.9999996 c 1.1045695,0 2,-0.895431 2,-2 v -3 c 0,-1.1045695 -0.8954305,-2 -2,-2 z"
     id="path2-0"
     sodipodi:nodetypes="ssssssssssssssssss"
     style="fill:#ee66ff;fill-opacity:1" />
  <path
     d="m 11,9.9999999 c -0.552285,0 -1.0000001,0.4477151 -1,1.0000001 v 3 c 0,0.552285 0.447715,1 1,1 h 3 c 0.552285,0 1,-0.447715 1,-1 V 11 C 15,10.447715 14.552285,9.9999999 14,9.9999999 Z M 9,11 C 9,9.8954305 9.8954305,9 11,9 h 3 c 1.104569,0 2,0.8954305 2,2 v 3 c 0,1.104569 -0.895431,2 -2,2 H 11 C 9.8954305,16 9,15.104569 9,14 Z"
     id="path2-59"
     sodipodi:nodetypes="ssssssssssssssssss"
     style="fill:#71bbf4;fill-opacity:1" />
</svg>
